<svg xmlns="http://www.w3.org/2000/svg" viewBox="0 0 800 600" role="img" aria-labelledby="title"><title>Fresh fish</title><defs><linearGradient id="bg" x1="0" x2="1" y1="0" y2="1"><stop stop-color="#e8f5f6"/><stop offset="1" stop-color="#c8e4e6"/></linearGradient><linearGradient id="fish" x1="0" x2="1"><stop stop-color="#8ab8bf"/><stop offset="1" stop-color="#4c8c98"/></linearGradient></defs><rect width="800" height="600" rx="40" fill="url(#bg)"/><ellipse cx="400" cy="450" rx="260" ry="32" fill="#9bcdd0" opacity=".5"/><path d="M190 340c74-142 302-151 421 0-119 151-347 142-421 0z" fill="url(#fish)"/><path d="M190 340 90 250v180z" fill="#397a86"/><circle cx="535" cy="310" r="15" fill="#123f4a"/><path d="M300 270c40 45 40 95 0 140M375 245c40 55 40 135 0 190M450 258c35 53 35 116 0 165" fill="none" stroke="#d7eef0" stroke-width="12" opacity=".7"/><path d="M630 150c-28 56-10 89 36 95M685 182c-48-28-75 2-79 40" fill="none" stroke="#5da36f" stroke-width="17" stroke-linecap="round"/></svg>
